<?xml version="1.0" standalone="no" ?>
<!DOCTYPE svg PUBLIC "-//W3C//DTD SVG 20010904//EN"
  "http://www.w3.org/TR/2001/REC-SVG-20010904/DTD/svg10.dtd">
<svg
  version="1.0"
  xmlns="http://www.w3.org/2000/svg"
  width="512.000000pt"
  height="512.000000pt"
  viewBox="0 0 512.000000 512.000000"
  preserveAspectRatio="xMidYMid meet"
>
<metadata>
Created by potrace 1.16, written by Peter Selinger 2001-2019
</metadata>
<g
    transform="translate(0.000000,512.000000) scale(0.100000,-0.100000)"
    fill="#000000"
    stroke="none"
  >
<path
      d="M3505 5105 c-225 -40 -431 -128 -610 -263 -88 -66 -952 -930 -978
-977 -31 -58 -31 -202 0 -260 50 -93 144 -148 253 -148 121 0 117 -3 610 487
442 439 500 491 616 542 117 52 200 68 339 68 104 0 145 -4 207 -22 204 -58
366 -173 476 -337 54 -81 75 -125 108 -225 25 -77 28 -99 28 -230 0 -129 -3
-154 -27 -233 -60 -196 -81 -222 -583 -727 -490 -493 -487 -489 -487 -610 0
-109 55 -203 148 -253 58 -31 202 -31 260 0 47 26 911 890 977 978 138 183
223 384 264 620 23 128 14 406 -15 525 -71 283 -181 481 -376 675 -198 198
-420 319 -695 380 -104 23 -407 29 -515 10z"
    />
<path
      d="M3299 3619 c-25 -4 -65 -17 -90 -29 -31 -15 -281 -258 -851 -828
-897 -897 -859 -853 -859 -986 0 -160 117 -277 277 -277 133 0 89 -39 986 859
898 897 859 853 859 986 0 177 -146 301 -322 275z"
    />
<path
      d="M1300 3221 c-62 -20 -111 -65 -545 -503 -492 -494 -523 -531 -618
-723 -47 -96 -83 -200 -113 -330 -27 -115 -27 -445 0 -560 68 -294 180 -500
381 -700 198 -198 421 -320 695 -380 114 -25 373 -31 495 -12 237 38 444 125
630 265 88 66 952 930 978 977 31 58 31 202 0 260 -50 93 -144 148 -253 148
-121 0 -117 3 -610 -487 -303 -301 -466 -456 -510 -484 -79 -51 -189 -95 -292
-116 -310 -64 -655 79 -832 344 -58 87 -78 129 -112 230 -25 77 -28 99 -28
230 0 129 3 154 27 233 60 196 81 222 583 727 490 493 487 489 487 610 0 110
-56 205 -148 253 -44 22 -170 33 -215 18z"
    />
</g>
</svg>
