<?xml version="1.0" standalone="no" ?>
<!DOCTYPE svg PUBLIC "-//W3C//DTD SVG 20010904//EN"
  "http://www.w3.org/TR/2001/REC-SVG-20010904/DTD/svg10.dtd">
<svg
  id="mapsvg"
  version="1.0"
  xmlns="http://www.w3.org/2000/svg"
  width="512.000000pt"
  height="512.000000pt"
  viewBox="0 0 512.000000 512.000000"
  preserveAspectRatio="xMidYMid meet"
>
<metadata>
Created by potrace 1.16, written by Peter Selinger 2001-2019
</metadata>
<g
    transform="translate(0.000000,512.000000) scale(0.100000,-0.100000)"
    fill="#000000"
    stroke="none"
  >
<path
      d="M2270 5100 c-411 -70 -738 -238 -1025 -525 -334 -333 -514 -746 -540
-1235 -20 -369 100 -801 374 -1344 235 -465 535 -925 942 -1446 214 -274 404
-498 448 -527 47 -32 135 -32 182 0 68 45 487 563 724 892 535 746 894 1452
999 1968 37 181 49 314 41 457 -26 489 -206 902 -540 1235 -292 293 -633 464
-1051 529 -140 22 -415 20 -554 -4z m585 -350 c434 -91 806 -361 1024 -745
126 -222 192 -473 192 -738 0 -499 -307 -1191 -904 -2042 -215 -305 -584 -780
-607 -780 -23 0 -392 475 -607 780 -244 348 -407 614 -563 920 -322 632 -408
1069 -294 1500 72 273 202 496 404 695 241 237 539 383 880 430 106 15 361 4
475 -20z"
    />
<path
      d="M2390 4189 c-207 -37 -424 -166 -558 -333 -78 -97 -155 -252 -183
-371 -28 -115 -30 -314 -5 -420 86 -359 343 -621 696 -711 105 -27 335 -27
440 0 353 90 610 352 696 711 25 106 23 305 -5 420 -29 119 -105 274 -183 371
-114 142 -299 264 -478 314 -86 25 -327 36 -420 19z m276 -340 c184 -34 346
-159 428 -333 45 -94 60 -174 53 -289 -9 -156 -68 -282 -185 -394 -97 -92
-270 -163 -402 -163 -132 0 -305 71 -402 163 -117 112 -176 238 -185 394 -7
115 8 195 53 289 117 246 378 381 640 333z"
    />
</g>
</svg>
